<svg xmlns="http://www.w3.org/2000/svg" viewBox="0 0 120 40" fill="none">
  <!-- Cloudflare orange cloud icon -->
  <path d="M29.5 26.5H10.2a5.7 5.7 0 0 1-.4-11.4l1.1-.1-.3-1.1a9 9 0 0 1-.2-1.8c0-5.2 4.2-9.4 9.4-9.4 3.8 0 7 2.2 8.6 5.4l.6 1.2 1.1-.8c1.1-.7 2.3-1.1 3.7-1.1a6.5 6.5 0 0 1 6.5 6.5c0 .9-.2 1.7-.5 2.5l-.4.9 1 .1a3.7 3.7 0 0 1 3.4 3.7 3.7 3.7 0 0 1-3.7 3.7l-.6-.3z" fill="#F6821F"/>
  <!-- Wordmark -->
  <text x="45" y="27" font-family="Arial, Helvetica, sans-serif" font-size="16" font-weight="700" fill="#404041">Cloudflare</text>
</svg>
